<svg version="1.1" id="Layer_1" xmlns="http://www.w3.org/2000/svg" xmlns:xlink="http://www.w3.org/1999/xlink" x="0px" y="0px"
	 width="100%" viewBox="0 0 100 62" enable-background="new 0 0 100 62" xml:space="preserve">
<path fill="#47704C" opacity="1.000000" stroke="none" 
	d="
M1.000000,52.000000 
	C1.000000,35.121361 1.000000,18.242723 1.000000,1.000000 
	C5.008224,1.000000 9.027451,1.000000 13.416637,1.346603 
	C10.421978,5.068030 9.402476,9.542794 12.441937,12.804573 
	C16.065483,16.693157 15.064107,19.805563 13.699183,23.877621 
	C13.025096,25.888660 13.278420,29.108980 14.524619,30.607351 
	C15.721259,32.046135 19.488001,33.156799 20.816929,32.323929 
	C24.276890,30.155487 27.600168,31.141378 31.054722,31.551079 
	C32.116657,34.031216 33.146027,36.156158 34.241192,38.477821 
	C34.499966,38.893799 34.741512,39.020706 35.019394,39.017303 
	C35.007160,38.979355 34.931095,39.003300 35.064034,39.326847 
	C39.409454,46.420853 48.625301,49.862034 56.244549,48.438332 
	C65.890739,46.635872 71.146332,40.588917 74.561821,31.745485 
	C77.249893,31.540892 79.625404,31.506109 82.000977,31.501160 
	C84.708824,31.495520 88.080574,32.534756 89.976532,31.298735 
	C93.210747,29.190269 92.346291,25.688881 90.931488,22.155359 
	C90.048141,19.949173 90.091911,16.456804 91.289261,14.504003 
	C94.885071,8.639453 95.167625,6.808815 91.000000,1.000000 
	C94.309242,1.000000 97.618477,1.000000 101.000000,1.000000 
	C101.000000,17.687500 101.000000,34.375092 100.611954,51.529198 
	C95.675003,52.347893 90.931053,53.681137 86.622452,52.824554 
	C79.998955,51.507763 73.633736,52.626865 67.166573,51.974037 
	C67.026917,52.533962 66.887268,53.093887 66.747620,53.653812 
	C68.070877,54.315628 69.394135,54.977440 71.000000,55.780598 
	C71.000000,58.061256 71.000000,60.530628 71.000000,63.000000 
	C69.611107,63.000000 68.222221,63.000000 66.385841,62.580921 
	C64.140198,61.069736 62.342033,59.977631 60.003136,58.557110 
	C60.003136,58.056782 60.207886,56.701900 59.943893,55.445511 
	C59.694279,54.257530 58.952328,53.173000 58.426926,52.042969 
	C57.723133,53.048435 57.019341,54.053902 56.363537,54.990803 
	C53.016087,51.047974 51.791748,50.451355 46.906124,52.635307 
	C46.217693,52.943043 45.067505,53.388527 44.712891,53.086685 
	C41.930229,50.718121 39.270405,50.471020 36.457790,52.986221 
	C36.156616,53.255550 35.272087,53.351315 35.019974,53.124836 
	C31.297159,49.780628 31.071283,53.012852 30.676250,54.424080 
	C26.722244,53.276516 22.785368,51.701519 18.822580,51.633377 
	C14.673173,51.562027 10.498878,52.937946 5.778107,53.780796 
	C4.808078,53.419266 2.904039,52.709633 1.000000,52.000000 
z"/>
<path fill="#FFFEFD" opacity="1.000000" stroke="none" 
	d="
M1.000000,52.482956 
	C2.904039,52.709633 4.808078,53.419266 5.778107,53.780796 
	C10.498878,52.937946 14.673173,51.562027 18.822580,51.633377 
	C22.785368,51.701519 26.722244,53.276516 30.676250,54.424080 
	C31.071283,53.012852 31.297159,49.780628 35.019974,53.124836 
	C35.272087,53.351315 36.156616,53.255550 36.457790,52.986221 
	C39.270405,50.471020 41.930229,50.718121 44.712891,53.086685 
	C45.067505,53.388527 46.217693,52.943043 46.906124,52.635307 
	C51.791748,50.451355 53.016087,51.047974 56.363537,54.990803 
	C57.019341,54.053902 57.723133,53.048435 58.426926,52.042969 
	C58.952328,53.173000 59.694279,54.257530 59.943893,55.445511 
	C60.207886,56.701900 60.003136,58.056782 60.003136,58.557110 
	C62.342033,59.977631 64.140198,61.069736 65.969177,62.580921 
	C44.333290,63.000000 22.666582,63.000000 1.000000,63.000000 
	C1.000000,59.591427 1.000000,56.278671 1.000000,52.482956 
z"/>
<path fill="#47704C" opacity="1.000000" stroke="none" 
	d="
M25.000000,1.000000 
	C43.020893,1.000000 61.041790,1.000000 79.421219,1.350964 
	C75.666100,6.735957 76.826576,11.457820 80.158974,14.672702 
	C80.878822,15.367171 81.780861,16.216761 81.927452,17.105646 
	C82.877258,22.864859 80.909470,24.068350 74.079803,21.637459 
	C71.769142,17.889242 69.543114,14.497337 67.118454,10.796915 
	C57.238789,3.553640 47.835278,2.685308 39.722897,9.374629 
	C35.874210,12.548188 33.702057,17.754934 30.396976,22.083658 
	C27.934353,22.434843 25.845125,22.742947 23.211046,23.131401 
	C23.715359,19.707710 23.314205,16.855736 24.530190,15.170853 
	C29.051376,8.906233 29.336998,7.041230 25.000000,1.000000 
z"/>
<path fill="#FFFEFD" opacity="1.000000" stroke="none" 
	d="
M74.164429,21.993773 
	C80.909470,24.068350 82.877258,22.864859 81.927452,17.105646 
	C81.780861,16.216761 80.878822,15.367171 80.158974,14.672702 
	C76.826576,11.457820 75.666100,6.735957 79.889877,1.350964 
	C83.361290,1.000000 86.722572,1.000000 90.541931,1.000000 
	C95.167625,6.808815 94.885071,8.639453 91.289261,14.504003 
	C90.091911,16.456804 90.048141,19.949173 90.931488,22.155359 
	C92.346291,25.688881 93.210747,29.190269 89.976532,31.298735 
	C88.080574,32.534756 84.708824,31.495520 82.000977,31.501160 
	C79.625404,31.506109 77.249893,31.540892 74.411903,31.312744 
	C74.021111,28.039917 74.092773,25.016846 74.164429,21.993773 
z"/>
<path fill="#FFFDFC" opacity="1.000000" stroke="none" 
	d="
M24.625000,1.000000 
	C29.336998,7.041230 29.051376,8.906233 24.530190,15.170853 
	C23.314205,16.855736 23.715359,19.707710 23.211046,23.131401 
	C25.845125,22.742947 27.934353,22.434843 30.565784,22.446728 
	C31.079380,25.576441 31.050770,28.386164 31.022160,31.195889 
	C27.600168,31.141378 24.276890,30.155487 20.816929,32.323929 
	C19.488001,33.156799 15.721259,32.046135 14.524619,30.607351 
	C13.278420,29.108980 13.025096,25.888660 13.699183,23.877621 
	C15.064107,19.805563 16.065483,16.693157 12.441937,12.804573 
	C9.402476,9.542794 10.421978,5.068030 13.893299,1.346603 
	C15.066669,1.000000 16.133339,1.000000 17.602127,1.425413 
	C18.068241,4.496082 17.026079,7.908296 22.000000,7.270926 
	C22.000000,5.201117 22.000000,3.100558 22.000000,1.000000 
	C22.750000,1.000000 23.500000,1.000000 24.625000,1.000000 
z"/>
<path fill="#FFFDFB" opacity="1.000000" stroke="none" 
	d="
M71.468658,63.000000 
	C71.000000,60.530628 71.000000,58.061256 71.000000,55.780598 
	C69.394135,54.977440 68.070877,54.315628 66.747620,53.653812 
	C66.887268,53.093887 67.026917,52.533962 67.166573,51.974037 
	C73.633736,52.626865 79.998955,51.507763 86.622452,52.824554 
	C90.931053,53.681137 95.675003,52.347893 100.611954,51.997856 
	C101.000000,55.627075 101.000000,59.254147 101.000000,63.000000 
	C91.312691,63.000000 81.625008,63.000000 71.468658,63.000000 
z"/>
<path fill="#47704C" opacity="1.000000" stroke="none" 
	d="
M21.600004,1.000000 
	C22.000000,3.100558 22.000000,5.201117 22.000000,7.270926 
	C17.026079,7.908296 18.068241,4.496082 18.002125,1.425413 
	C19.066669,1.000000 20.133339,1.000000 21.600004,1.000000 
z"/>
<path fill="#F04537" opacity="1.000000" stroke="none" 
	d="
M31.054722,31.551079 
	C31.050770,28.386164 31.079380,25.576441 30.939182,22.403646 
	C33.702057,17.754934 35.874210,12.548188 39.722897,9.374629 
	C47.835278,2.685308 57.238789,3.553640 67.102341,11.198286 
	C69.123611,17.835989 68.025436,23.812668 65.135765,28.713375 
	C63.012260,32.314713 60.106926,36.893322 54.167789,36.023399 
	C51.599823,35.647263 48.930904,35.960335 46.307846,35.960335 
	C46.327301,36.425789 46.346760,36.891247 46.366219,37.356701 
	C48.817364,37.638248 51.268505,37.919796 53.719650,38.201344 
	C52.878262,39.347618 51.990547,40.028404 51.134785,39.990360 
	C45.729610,39.750050 40.331524,39.350365 34.931095,39.003300 
	C34.931095,39.003300 35.007160,38.979355 34.904629,38.858440 
	C34.631550,38.532719 34.422653,38.380577 34.175400,38.281105 
	C33.146027,36.156158 32.116657,34.031216 31.054722,31.551079 
z"/>
<path fill="#FAAA44" opacity="1.000000" stroke="none" 
	d="
M35.064034,39.326847 
	C40.331524,39.350365 45.729610,39.750050 51.134785,39.990360 
	C51.990547,40.028404 52.878262,39.347618 53.719650,38.201344 
	C51.268505,37.919796 48.817364,37.638248 46.366219,37.356701 
	C46.346760,36.891247 46.327301,36.425789 46.307846,35.960335 
	C48.930904,35.960335 51.599823,35.647263 54.167789,36.023399 
	C60.106926,36.893322 63.012260,32.314713 65.135765,28.713375 
	C68.025436,23.812668 69.123611,17.835989 67.300980,11.506804 
	C69.543114,14.497337 71.769142,17.889242 74.079796,21.637459 
	C74.092773,25.016846 74.021111,28.039917 74.099365,31.495731 
	C71.146332,40.588917 65.890739,46.635872 56.244549,48.438332 
	C48.625301,49.862034 39.409454,46.420853 35.064034,39.326847 
z"/>
<path fill="#FAAA44" opacity="1.000000" stroke="none" 
	d="
M34.241192,38.477821 
	C34.422653,38.380577 34.631550,38.532719 34.916862,38.896393 
	C34.741512,39.020706 34.499966,38.893799 34.241192,38.477821 
z"/>
</svg>